<svg id='Color_Dropper_48' width='48' height='48' viewBox='0 0 48 48' xmlns='http://www.w3.org/2000/svg' xmlns:xlink='http://www.w3.org/1999/xlink'><rect width='48' height='48' stroke='none' fill='#000000' opacity='0'/>


<g transform="matrix(0.94 0 0 0.94 24 24)" >
<path style="stroke: none; stroke-width: 1; stroke-dasharray: none; stroke-linecap: butt; stroke-dashoffset: 0; stroke-linejoin: miter; stroke-miterlimit: 4; fill:#4666ab; fill-rule: nonzero; opacity: 1;" transform=" translate(-25.49, -24.5)" d="M 42.46875 1 C 40.796875 1 39.144531 1.636719 37.875 2.90625 L 31.3125 9.4375 L 31.15625 9.28125 C 30.726563 8.851563 30.164063 8.65625 29.59375 8.65625 C 29.023438 8.65625 28.429688 8.851563 28 9.28125 L 25.40625 11.90625 C 24.542969 12.769531 24.542969 14.199219 25.40625 15.0625 L 26.4375 16.0625 L 8.375 34.125 C 7.035156 35.464844 6.253906 36.460938 5.78125 37.3125 C 5.308594 38.164063 5.171875 38.894531 5.0625 39.4375 C 4.953125 39.980469 4.871094 40.351563 4.53125 40.96875 C 4.191406 41.585938 3.542969 42.425781 2.28125 43.6875 C 1.894531 44.078125 1.894531 44.703125 2.28125 45.09375 L 4.90625 47.71875 C 5.296875 48.105469 5.921875 48.105469 6.3125 47.71875 C 7.574219 46.457031 8.417969 45.808594 9.03125 45.46875 C 9.644531 45.128906 10.019531 45.046875 10.5625 44.9375 C 11.105469 44.828125 11.835938 44.691406 12.6875 44.21875 C 13.539063 43.746094 14.535156 42.964844 15.875 41.625 L 33.9375 23.5625 L 34.9375 24.59375 C 35.800781 25.457031 37.230469 25.457031 38.09375 24.59375 L 40.71875 22 C 41.582031 21.136719 41.578125 19.707031 40.71875 18.84375 L 40.5625 18.6875 L 47.09375 12.125 C 49.632813 9.585938 49.632813 5.445313 47.09375 2.90625 C 45.824219 1.636719 44.140625 1 42.46875 1 Z M 42.5 2.96875 C 43.65625 2.96875 44.800781 3.425781 45.6875 4.3125 C 47.460938 6.089844 47.460938 8.945313 45.6875 10.71875 L 39.125 17.25 L 32.75 10.875 L 39.28125 4.3125 C 40.167969 3.425781 41.34375 2.96875 42.5 2.96875 Z M 29.59375 10.65625 C 29.65625 10.65625 29.703125 10.671875 29.75 10.71875 L 39.28125 20.25 C 39.378906 20.347656 39.378906 20.496094 39.28125 20.59375 L 36.6875 23.1875 C 36.589844 23.285156 36.472656 23.285156 36.375 23.1875 L 34.8125 21.65625 C 34.726563 21.515625 34.609375 21.398438 34.46875 21.3125 L 28.78125 15.59375 C 28.683594 15.40625 28.53125 15.253906 28.34375 15.15625 L 26.8125 13.625 C 26.714844 13.527344 26.714844 13.410156 26.8125 13.3125 L 29.40625 10.71875 C 29.453125 10.671875 29.53125 10.65625 29.59375 10.65625 Z M 27.84375 17.5 L 32.5 22.15625 L 14.4375 40.21875 C 13.175781 41.480469 12.335938 42.125 11.71875 42.46875 C 11.101563 42.8125 10.730469 42.859375 10.1875 42.96875 C 9.644531 43.078125 8.914063 43.246094 8.0625 43.71875 C 7.421875 44.074219 6.578125 44.84375 5.6875 45.65625 L 4.34375 44.3125 C 5.15625 43.421875 5.925781 42.578125 6.28125 41.9375 C 6.753906 41.085938 6.921875 40.355469 7.03125 39.8125 C 7.140625 39.269531 7.191406 38.894531 7.53125 38.28125 C 7.871094 37.667969 8.519531 36.824219 9.78125 35.5625 Z" stroke-linecap="round" fill="#4666ab" />
</g>
</svg>