<svg id='Responsive_Design_Image_48' width='48' height='48' viewBox='0 0 48 48' xmlns='http://www.w3.org/2000/svg' xmlns:xlink='http://www.w3.org/1999/xlink'><rect width='48' height='48' stroke='none' fill='#000000' opacity='0'/>


<g transform="matrix(1.83 0 0 1.83 24 24)" >
<g style="" >
<g transform="matrix(1 0 0 1 7.5 -5.25)" >
<path style="stroke: rgb(0,0,0); stroke-width: 1.5; stroke-dasharray: none; stroke-linecap: round; stroke-dashoffset: 0; stroke-linejoin: round; stroke-miterlimit: 4; fill:#4666ab; fill-rule: nonzero; opacity: 1;" transform=" translate(-19.5, -6.75)" d="M 21.75 0.75 L 17.25 0.75 C 16.4216 0.75 15.75 1.42157 15.75 2.25 L 15.75 11.25 C 15.75 12.0784 16.4216 12.75 17.25 12.75 L 21.75 12.75 C 22.5784 12.75 23.25 12.0784 23.25 11.25 L 23.25 2.25 C 23.25 1.42157 22.5784 0.75 21.75 0.75 Z" stroke-linecap="round" />
</g>
<g transform="matrix(1 0 0 1 7.5 -2.25)" >
<path style="stroke: rgb(0,0,0); stroke-width: 1.5; stroke-dasharray: none; stroke-linecap: round; stroke-dashoffset: 0; stroke-linejoin: round; stroke-miterlimit: 4; fill:#4666ab; fill-rule: nonzero; opacity: 1;" transform=" translate(-19.5, -9.75)" d="M 15.75 9.75 L 23.25 9.75" stroke-linecap="round" />
</g>
<g transform="matrix(1 0 0 1 7.5 -8.25)" >
<path style="stroke: rgb(0,0,0); stroke-width: 1.5; stroke-dasharray: none; stroke-linecap: round; stroke-dashoffset: 0; stroke-linejoin: round; stroke-miterlimit: 4; fill:#4666ab; fill-rule: nonzero; opacity: 1;" transform=" translate(-19.5, -3.75)" d="M 15.75 3.75 L 23.25 3.75" stroke-linecap="round" />
</g>
<g transform="matrix(1 0 0 1 -0.75 1.5)" >
<path style="stroke: rgb(0,0,0); stroke-width: 1.5; stroke-dasharray: none; stroke-linecap: round; stroke-dashoffset: 0; stroke-linejoin: round; stroke-miterlimit: 4; fill:#4666ab; fill-rule: nonzero; opacity: 1;" transform=" translate(-11.25, -13.5)" d="M 12.75 3.75 L 2.25 3.75 C 1.85218 3.75 1.47064 3.90804 1.18934 4.18934 C 0.908035 4.47064 0.75 4.85218 0.75 5.25 L 0.75 21.75 C 0.75 22.1478 0.908035 22.5294 1.18934 22.8107 C 1.47064 23.092 1.85218 23.25 2.25 23.25 L 20.25 23.25 C 20.6478 23.25 21.0294 23.092 21.3107 22.8107 C 21.592 22.5294 21.75 22.1478 21.75 21.75 L 21.75 15.75" stroke-linecap="round" />
</g>
<g transform="matrix(1 0 0 1 -5.25 -3.75)" >
<path style="stroke: rgb(0,0,0); stroke-width: 1.5; stroke-dasharray: none; stroke-linecap: round; stroke-dashoffset: 0; stroke-linejoin: round; stroke-miterlimit: 4; fill:#4666ab; fill-rule: nonzero; opacity: 1;" transform=" translate(-6.75, -8.25)" d="M 0.75 8.25 L 12.75 8.25" stroke-linecap="round" />
</g>
<g transform="matrix(1 0 0 1 -5.73 0.38)" >
<path style="stroke: rgb(0,0,0); stroke-width: 1.5; stroke-dasharray: none; stroke-linecap: butt; stroke-dashoffset: 0; stroke-linejoin: miter; stroke-miterlimit: 4; fill:#4666ab; fill-rule: nonzero; opacity: 1;" transform=" translate(-6.27, -12.38)" d="M 6.46106 12.75 C 6.25395 12.75 6.08606 12.5821 6.08606 12.375 C 6.08606 12.1679 6.25395 12 6.46106 12" stroke-linecap="round" />
</g>
<g transform="matrix(1 0 0 1 -5.35 0.38)" >
<path style="stroke: rgb(0,0,0); stroke-width: 1.5; stroke-dasharray: none; stroke-linecap: butt; stroke-dashoffset: 0; stroke-linejoin: miter; stroke-miterlimit: 4; fill:#4666ab; fill-rule: nonzero; opacity: 1;" transform=" translate(-6.65, -12.38)" d="M 6.46106 12.75 C 6.66817 12.75 6.83606 12.5821 6.83606 12.375 C 6.83606 12.1679 6.66817 12 6.46106 12" stroke-linecap="round" />
</g>
<g transform="matrix(1 0 0 1 0.01 5.16)" >
<path style="stroke: rgb(0,0,0); stroke-width: 1.5; stroke-dasharray: none; stroke-linecap: round; stroke-dashoffset: 0; stroke-linejoin: round; stroke-miterlimit: 4; fill:#4666ab; fill-rule: nonzero; opacity: 1;" transform=" translate(-12.01, -17.16)" d="M 18 20.25 L 14.13 14.413 C 14.0624 14.3113 13.971 14.2278 13.8638 14.1695 C 13.7566 14.1112 13.6367 14.08 13.5147 14.0787 C 13.3926 14.0773 13.2721 14.1057 13.1636 14.1616 C 13.0551 14.2174 12.9618 14.2989 12.892 14.399 L 10.9 17.25 L 9.65997 16.261 C 9.57878 16.1962 9.48499 16.1489 9.38457 16.1222 C 9.28415 16.0955 9.17928 16.09 9.07661 16.106 C 8.97394 16.122 8.87571 16.1591 8.78815 16.2151 C 8.70059 16.271 8.62562 16.3445 8.56797 16.431 L 6.02197 20.25" stroke-linecap="round" />
</g>
<g transform="matrix(1 0 0 1 -0.75 8.25)" >
<path style="stroke: rgb(0,0,0); stroke-width: 1.5; stroke-dasharray: none; stroke-linecap: round; stroke-dashoffset: 0; stroke-linejoin: round; stroke-miterlimit: 4; fill:#4666ab; fill-rule: nonzero; opacity: 1;" transform=" translate(-11.25, -20.25)" d="M 4.5 20.25 L 18 20.25" stroke-linecap="round" />
</g>
</g>
</g>
</svg>